<svg viewBox="0 0 1000 1000" xmlns="http://www.w3.org/2000/svg"> 

    <path d="M500 985L500 985L920.0223208354528 257.5000000000001L79.97767916454734 257.4999999999998L500 985" stroke="#ff0000" stroke-width="30.000000000000007" stroke-linecap="round" stroke-linejoin="round" fill="transparent"/>
    <path d="M540.5837540161731 983.2990367360096L540.5837540161731 983.2990367360096L898.2573664298463 223.2039196730505L61.1588795539804 293.49704359094L540.5837540161731 983.2990367360096" stroke="#ff2d00" stroke-width="30.000000000000007" stroke-linecap="round" stroke-linejoin="round" fill="transparent"/>
    <path d="M580.8828421573096 978.208077979195L580.8828421573096 978.208077979195L873.6989227462578 190.84936497188548L45.41823509643248 330.9425570489199L580.8828421573096 978.208077979195" stroke="#ff5a00" stroke-width="30.000000000000007" stroke-linecap="round" stroke-linejoin="round" fill="transparent"/>
    <path d="M620.6145952749546 969.7628331473861L620.6145952749546 969.7628331473861L846.5192496219096 160.66327985101776L32.866155103135824 369.57388700159606L620.6145952749546 969.7628331473861" stroke="#ff8700" stroke-width="30.000000000000007" stroke-linecap="round" stroke-linejoin="round" fill="transparent"/>
    <path d="M659.5003236682129 958.0225395651782L659.5003236682129 958.0225395651782L816.9089929352012 132.8573980088982L23.590683396585973 409.12006242592355L659.5003236682129 958.0225395651782" stroke="#ffb500" stroke-width="30.000000000000007" stroke-linecap="round" stroke-linejoin="round" fill="transparent"/>
    <path d="M697.2672718917631 943.0695469566614L697.2672718917631 943.0695469566614L785.0758473618496 107.62675772815054L17.656880746387404 449.3036953151881L697.2672718917631 943.0695469566614" stroke="#ffe200" stroke-width="30.000000000000007" stroke-linecap="round" stroke-linejoin="round" fill="transparent"/>
    <path d="M733.6505319393319 925.0087398212738L733.6505319393319 925.0087398212738L751.2430995459682 85.1483338221543L15.106368514699936 489.842926356572L733.6505319393319 925.0087398212738" stroke="#efff00" stroke-width="30.000000000000007" stroke-linecap="round" stroke-linejoin="round" fill="transparent"/>
    <path d="M768.3949013830219 903.9668017443983L768.3949013830219 903.9668017443983L715.6480619046897 65.57979628388475L15.957036712288298 530.4534019717171L768.3949013830219 903.9668017443983" stroke="#c2ff00" stroke-width="30.000000000000007" stroke-linecap="round" stroke-linejoin="round" fill="transparent"/>
    <path d="M801.2566734349806 880.0913268030323L801.2566734349806 880.0913268030323L678.5404080520686 49.05840434419805L20.202918512950664 570.8502688527694L801.2566734349806 880.0913268030323" stroke="#95ff00" stroke-width="30.000000000000007" stroke-linecap="round" stroke-linejoin="round" fill="transparent"/>
    <path d="M832.005346375414 853.5497842993846L832.005346375414 853.5497842993846L640.1804215180688 35.70004369694739L27.814232106517263 610.7501720036679L832.005346375414 853.5497842993846" stroke="#68ff00" stroke-width="30.000000000000007" stroke-linecap="round" stroke-linejoin="round" fill="transparent"/>
    <path d="M860.4252403565362 824.5283440840462L860.4252403565362 824.5283440840462L600.8371700466133 25.598413644104244L38.73758959685048 649.8732422718494L860.4252403565362 824.5283440840462" stroke="#3aff00" stroke-width="30.000000000000007" stroke-linecap="round" stroke-linejoin="round" fill="transparent"/>
    <path d="M886.3170102417351 793.2305707082519L886.3170102417351 793.2305707082519L560.7866182786877 18.82436986247829L52.896371479577255 687.9450594292699L886.3170102417351 793.2305707082519" stroke="#0dff00" stroke-width="30.000000000000007" stroke-linecap="round" stroke-linejoin="round" fill="transparent"/>
    <path d="M909.4990438684773 759.8759955648134L909.4990438684773 759.8759955648134L520.3096920586619 15.425427402053687L70.19126407286086 724.698577033133L909.4990438684773 759.8759955648134" stroke="#00ff20" stroke-width="30.000000000000007" stroke-linecap="round" stroke-linejoin="round" fill="transparent"/>
    <path d="M929.8087359271391 724.6985770331329L929.8087359271391 724.6985770331329L479.69030794133823 15.425427402053687L90.50095613152247 759.8759955648131L929.8087359271391 724.6985770331329" stroke="#00ff4d" stroke-width="30.000000000000007" stroke-linecap="round" stroke-linejoin="round" fill="transparent"/>
    <path d="M947.1036285204227 687.9450594292699L947.1036285204227 687.9450594292699L439.21338172131243 18.824369862478235L113.68298975826487 793.2305707082519L947.1036285204227 687.9450594292699" stroke="#00ff7a" stroke-width="30.000000000000007" stroke-linecap="round" stroke-linejoin="round" fill="transparent"/>
    <path d="M961.2624104031495 649.8732422718496L961.2624104031495 649.8732422718496L399.1628299533866 25.598413644104298L139.57475964346364 824.528344084046L961.2624104031495 649.8732422718496" stroke="#00ffa7" stroke-width="30.000000000000007" stroke-linecap="round" stroke-linejoin="round" fill="transparent"/>
    <path d="M972.1857678934828 610.750172003668L972.1857678934828 610.750172003668L359.81957848193133 35.70004369694733L167.9946536245862 853.5497842993847L972.1857678934828 610.750172003668" stroke="#00ffd5" stroke-width="30.000000000000007" stroke-linecap="round" stroke-linejoin="round" fill="transparent"/>
    <path d="M979.7970814870494 570.8502688527697L979.7970814870494 570.8502688527697L321.459591947931 49.05840434419815L198.74332656501934 880.0913268030322L979.7970814870494 570.8502688527697" stroke="#00fcff" stroke-width="30.000000000000007" stroke-linecap="round" stroke-linejoin="round" fill="transparent"/>
    <path d="M984.0429632877117 530.4534019717171L984.0429632877117 530.4534019717171L284.3519380953101 65.5797962838848L231.60509861697807 903.9668017443983L984.0429632877117 530.4534019717171" stroke="#00cfff" stroke-width="30.000000000000007" stroke-linecap="round" stroke-linejoin="round" fill="transparent"/>
    <path d="M984.8936314853 489.8429263565719L984.8936314853 489.8429263565719L248.75690045403198 85.1483338221542L266.3494680606681 925.0087398212738L984.8936314853 489.8429263565719" stroke="#00a2ff" stroke-width="30.000000000000007" stroke-linecap="round" stroke-linejoin="round" fill="transparent"/>
    <path d="M982.3431192536126 449.30369531518807L982.3431192536126 449.30369531518807L214.9241526381506 107.62675772815048L302.7327281082369 943.0695469566615L982.3431192536126 449.30369531518807" stroke="#0075ff" stroke-width="30.000000000000007" stroke-linecap="round" stroke-linejoin="round" fill="transparent"/>
    <path d="M976.409316603414 409.12006242592344L976.409316603414 409.12006242592344L183.09100706479904 132.857398008898L340.4996763317872 958.0225395651784L976.409316603414 409.12006242592344" stroke="#0048ff" stroke-width="30.000000000000007" stroke-linecap="round" stroke-linejoin="round" fill="transparent"/>
    <path d="M967.1338448968643 369.5738870015962L967.1338448968643 369.5738870015962L153.4807503780902 160.663279851018L379.3854047250452 969.7628331473861L967.1338448968643 369.5738870015962" stroke="#001bff" stroke-width="30.000000000000007" stroke-linecap="round" stroke-linejoin="round" fill="transparent"/>
    <path d="M954.5817649035674 330.9425570489197L954.5817649035674 330.9425570489197L126.30107725374216 190.8493649718856L419.1171578426906 978.208077979195L954.5817649035674 330.9425570489197" stroke="#1300ff" stroke-width="30.000000000000007" stroke-linecap="round" stroke-linejoin="round" fill="transparent"/>
    <path d="M938.8411204460195 293.49704359093977L938.8411204460195 293.49704359093977L101.7426335701537 223.2039196730504L459.4162459838268 983.2990367360096L938.8411204460195 293.49704359093977" stroke="#4000ff" stroke-width="30.000000000000007" stroke-linecap="round" stroke-linejoin="round" fill="transparent"/>
     </svg>