<?xml version="1.0" encoding="UTF-8" standalone="no"?>
<!-- Created with Inkscape (http://www.inkscape.org/) -->

<svg xmlns:dc="http://purl.org/dc/elements/1.1/" xmlns:cc="http://creativecommons.org/ns#" xmlns:rdf="http://www.w3.org/1999/02/22-rdf-syntax-ns#" xmlns:svg="http://www.w3.org/2000/svg" xmlns="http://www.w3.org/2000/svg" xmlns:sodipodi="http://sodipodi.sourceforge.net/DTD/sodipodi-0.dtd" xmlns:inkscape="http://www.inkscape.org/namespaces/inkscape" width="167.57338mm" height="41.766815mm" viewBox="0 0 167.57338 41.766815" version="1.1" id="svg8" inkscape:version="0.92.4 (5da689c313, 2019-01-14)" sodipodi:docname="drawing.svg">
  <defs id="defs2" />
  <sodipodi:namedview id="base" pagecolor="#474747" bordercolor="#666666" borderopacity="1.0" inkscape:pageopacity="0" inkscape:pageshadow="2" inkscape:zoom="1" inkscape:cx="544.10179" inkscape:cy="140.19101" inkscape:document-units="px" inkscape:current-layer="layer2" showgrid="false" fit-margin-top="0" fit-margin-left="0" fit-margin-right="0" fit-margin-bottom="0" inkscape:showpageshadow="false" borderlayer="true" inkscape:window-width="1920" inkscape:window-height="1017" inkscape:window-x="-8" inkscape:window-y="-8" inkscape:window-maximized="1" />
  <metadata id="metadata5">
    <rdf:RDF>
      <cc:Work rdf:about="">
        <dc:format>image/svg+xml</dc:format>
        <dc:type rdf:resource="http://purl.org/dc/dcmitype/StillImage" />
        <dc:title></dc:title>
      </cc:Work>
    </rdf:RDF>
  </metadata>


  <mask id="ehre">
    <rect x="0" y="0" width="100%" height="100%" fill="black" />
    <g
     inkscape:groupmode="layer"
     id="layer2"
     inkscape:label="Layer 1"
     transform="translate(-62.542005,-84.019697)">
      <path inkscape:connector-curvature="0" id="path826" style="font-style:normal;font-variant:normal;font-weight:bold;font-stretch:normal;font-size:51.94300079px;line-height:1.25;font-family:Gadugi;-inkscape-font-specification:'Gadugi, Bold';font-variant-ligatures:normal;font-variant-caps:normal;font-variant-numeric:normal;font-feature-settings:normal;text-align:start;letter-spacing:0px;word-spacing:0px;writing-mode:lr-tb;text-anchor:start;fill:#ffffff;fill-opacity:1;stroke:none;stroke-width:1.29855978" d="M 62.542005,125.15244 V 88.782197 h 12.884299 c 12.918117,0 19.377175,5.909531 19.377175,17.728593 0,5.66436 -1.766941,10.18739 -5.300824,13.56909 -3.516974,3.38171 -8.275237,5.07256 -14.076351,5.07256 z m 8.192183,-29.699828 c 15.445941,11.159628 15.445941,11.159628 0,23.054778 h 4.058047 c 3.550791,0 6.332244,-1.06524 8.344359,-3.19571 2.029023,-2.13047 3.043535,-5.03029 3.043535,-8.69944 0,-3.46625 -1.006058,-6.18852 -3.018173,-8.166818 -1.995206,-1.995207 -4.802022,-2.99281 -8.420447,-2.99281 z" sodipodi:nodetypes="ccsscscccscscsc" />
      <path inkscape:connector-curvature="0" id="path828" style="font-style:normal;font-variant:normal;font-weight:bold;font-stretch:normal;font-size:51.94300079px;line-height:1.25;font-family:Gadugi;-inkscape-font-specification:'Gadugi, Bold';font-variant-ligatures:normal;font-variant-caps:normal;font-variant-numeric:normal;font-feature-settings:normal;text-align:start;letter-spacing:0px;word-spacing:0px;writing-mode:lr-tb;text-anchor:start;fill:#ffffff;fill-opacity:1;stroke:none;stroke-width:1.29855978" d="m 125.58116,125.15244 h -9.4096 l -5.6559,-9.35887 q -0.63407,-1.06524 -1.21741,-1.90221 -0.58335,-0.83697 -1.19205,-1.42031 -0.58335,-0.60871 -1.24278,-0.91306 -0.63407,-0.32972 -1.39495,-0.32972 h -2.20657 v 13.92417 H 95.069717 V 88.782197 h 12.985753 q 13.23938,0 13.23938,9.89149 0,1.902213 -0.58335,3.525423 -0.58334,1.59786 -1.64858,2.89136 -1.06523,1.29351 -2.587,2.23193 -1.49641,0.93842 -3.34789,1.47104 v 0.10145 q 0.81161,0.25363 1.57249,0.83697 0.76089,0.55799 1.47104,1.31887 0.71016,0.76088 1.34423,1.64858 0.65944,0.86234 1.19205,1.69931 z M 103.2619,94.919993 v 10.119757 h 3.55079 q 2.63773,0 4.23559,-1.52177 1.62322,-1.54713 1.62322,-3.829782 0,-4.768205 -5.70663,-4.768205 z" />
      <path inkscape:connector-curvature="0" id="path830" style="font-style:normal;font-variant:normal;font-weight:bold;font-stretch:normal;font-size:51.94300079px;line-height:1.25;font-family:Gadugi;-inkscape-font-specification:'Gadugi, Bold';font-variant-ligatures:normal;font-variant-caps:normal;font-variant-numeric:normal;font-feature-settings:normal;text-align:start;letter-spacing:0px;word-spacing:0px;writing-mode:lr-tb;text-anchor:start;fill:#ffffff;fill-opacity:1;stroke:none;stroke-width:1.29855978" d="m 151.15033,119.86077 -5.68474,5.29167 -10.60164,-15.80102 c -0.20291,-0.30435 -0.52417,-0.97224 -0.96379,-2.00366 h -0.12681 v 17.80468 h -8.19219 V 88.782197 h 8.19219 v 17.195973 h 0.12681 c 0.2029,-0.47344 0.54107,-1.14978 1.01451,-2.02902 l 10.04367,-15.166953 h 9.76467 l -12.68139,17.348153 z" sodipodi:nodetypes="cccccccccccccccc" />
      <path inkscape:connector-curvature="0" id="path832" style="font-style:normal;font-variant:normal;font-weight:bold;font-stretch:normal;font-size:51.94300079px;line-height:1.25;font-family:Gadugi;-inkscape-font-specification:'Gadugi, Bold';font-variant-ligatures:normal;font-variant-caps:normal;font-variant-numeric:normal;font-feature-settings:normal;text-align:start;letter-spacing:0px;word-spacing:0px;writing-mode:lr-tb;text-anchor:start;fill:#ffffff;fill-opacity:1;stroke:none;stroke-width:1.29855978" d="m 155.80287,123.75749 v -8.11609 q 2.20657,1.85148 4.79357,2.7899 2.58701,0.91306 5.22474,0.91306 1.54713,0 2.68845,-0.27899 1.16669,-0.27899 1.92758,-0.76088 0.78624,-0.50726 1.16669,-1.16669 0.38044,-0.6848 0.38044,-1.47104 0,-1.06524 -0.60871,-1.90221 -0.60871,-0.83697 -1.67394,-1.54713 -1.03988,-0.71016 -2.48556,-1.36959 -1.44568,-0.65944 -3.11962,-1.34423 -4.26095,-1.7754 -6.36606,-4.33704 -2.07975,-2.56164 -2.07975,-6.18852 0,-2.840633 1.14132,-4.869656 1.14133,-2.054386 3.09426,-3.373252 1.9783,-1.318865 4.56531,-1.927572 2.587,-0.63407 5.47836,-0.63407 2.84063,0 5.02183,0.355079 2.20657,0.329717 4.05805,1.039875 v 7.583475 q -0.91306,-0.63407 -2.00366,-1.115963 -1.06524,-0.481893 -2.20656,-0.786246 -1.14133,-0.329717 -2.28265,-0.481894 -1.11597,-0.152176 -2.13048,-0.152176 -1.39495,0 -2.53628,0.27899 -1.14132,0.253628 -1.92757,0.735521 -0.78625,0.481894 -1.21741,1.166689 -0.43117,0.659433 -0.43117,1.496405 0,0.91306 0.48189,1.648581 0.48189,0.710154 1.36959,1.369594 0.8877,0.63407 2.15584,1.26814 1.26814,0.6087 2.86599,1.26814 2.18121,0.91306 3.90588,1.95293 1.75003,1.01451 2.9928,2.30802 1.24278,1.2935 1.90221,2.96744 0.65944,1.64858 0.65944,3.85515 0,3.04353 -1.16669,5.12328 -1.14133,2.05439 -3.11963,3.34789 -1.97829,1.26814 -4.61602,1.82612 -2.61237,0.55798 -5.52909,0.55798 -2.99281,0 -5.70663,-0.50725 -2.68846,-0.50726 -4.66676,-1.52177 z" />
      <path inkscape:connector-curvature="0" id="path834" style="font-style:normal;font-variant:normal;font-weight:bold;font-stretch:normal;font-size:51.94300079px;line-height:1.25;font-family:Gadugi;-inkscape-font-specification:'Gadugi, Bold';font-variant-ligatures:normal;font-variant-caps:normal;font-variant-numeric:normal;font-feature-settings:normal;text-align:start;letter-spacing:0px;word-spacing:0px;writing-mode:lr-tb;text-anchor:start;fill:#ffffff;fill-opacity:1;stroke:none;stroke-width:1.29855978" d="M 203.51789,125.15244 H 181.85806 V 88.782197 h 8.19219 l 0.79375,29.947133 12.67389,-0.22194 z" sodipodi:nodetypes="ccccccc" />
      <path inkscape:connector-curvature="0" id="path836" style="font-style:normal;font-variant:normal;font-weight:bold;font-stretch:normal;font-size:51.94300079px;line-height:1.25;font-family:Gadugi;-inkscape-font-specification:'Gadugi, Bold';font-variant-ligatures:normal;font-variant-caps:normal;font-variant-numeric:normal;font-feature-settings:normal;text-align:start;letter-spacing:0px;word-spacing:0px;writing-mode:lr-tb;text-anchor:start;fill:#ffffff;fill-opacity:1;stroke:none;stroke-width:1.29855978" d="m 230.11538,88.782197 -12.52922,36.370243 h -9.28279 l -13.96454,-41.132743 8.8924,2.116667 9.10483,27.957906 c 0.4058,1.36959 0.65097,2.57854 0.73552,3.62687 h 0.15218 c 0.11835,-1.13287 0.38043,-2.37564 0.78624,-3.72833 l 8.78952,-23.160093 z" sodipodi:nodetypes="ccccccccccc" />
    </g>
  </mask>
  <linearGradient id="grad" gradientTransform="rotate(45, .5, .5)">
    <stop offset="0%" stop-color="#ff00fe" ></stop>
    <stop offset="100%" stop-color="#00f3ff" ></stop>
  </linearGradient>

  <rect x="0" y="0" width="100%" height="100%" fill="url(#grad)" mask="url(#ehre)" />
</svg>
