<?xml version="1.0" encoding="UTF-8" standalone="no"?>
<svg
   height="28.736879"
   width="25.371799"
   alt="TikTok"
   version="1.1"
   id="svg41"
   sodipodi:docname="tiktoklogo.svg"
   inkscape:version="1.1 (c68e22c387, 2021-05-23)"
   xmlns:inkscape="http://www.inkscape.org/namespaces/inkscape"
   xmlns:sodipodi="http://sodipodi.sourceforge.net/DTD/sodipodi-0.dtd"
   xmlns="http://www.w3.org/2000/svg"
   xmlns:svg="http://www.w3.org/2000/svg">
  <sodipodi:namedview
     id="namedview43"
     pagecolor="#505050"
     bordercolor="#eeeeee"
     borderopacity="1"
     inkscape:pageshadow="0"
     inkscape:pageopacity="0"
     inkscape:pagecheckerboard="0"
     showgrid="false"
     inkscape:zoom="9.8644068"
     inkscape:cx="44.655498"
     inkscape:cy="16.371993"
     inkscape:window-width="1920"
     inkscape:window-height="1017"
     inkscape:window-x="-8"
     inkscape:window-y="-8"
     inkscape:window-maximized="1"
     inkscape:current-layer="g34" />
  <g
     clip-path="url(#clip0)"
     id="g34"
     transform="translate(0,-5.52632)">
    <path
       d="M 9.87537,16.842 V 15.7233 C 9.49211,15.6721 9.10246,15.6401 8.70003,15.6401 3.90288,15.6338 0,19.5399 0,24.3475 c 0,2.9472 1.46917,5.5556 3.71764,7.1347 -1.45001,-1.5535 -2.3379,-3.6441 -2.3379,-5.9328 0,-4.7373 3.79429,-8.5987 8.49563,-8.7074 z"
       fill="#25f4ee"
       data-darkreader-inline-fill=""
       id="path2" />
    <path
       d="m 10.0862,29.5259 c 2.1399,0 3.8901,-1.7069 3.9668,-3.8294 L 14.0594,6.72822 h 3.4621 C 17.4512,6.33824 17.4129,5.93548 17.4129,5.52632 H 12.686 L 12.6796,24.4946 c -0.0766,2.1225 -1.8269,3.8294 -3.96674,3.8294 -0.66432,0 -1.29031,-0.1662 -1.84604,-0.4603 0.71542,1.0037 1.89076,1.6622 3.21938,1.6622 z"
       fill="#25f4ee"
       data-darkreader-inline-fill=""
       id="path4" />
    <path
       d="m 23.9923,13.166 v -1.0548 c -1.3222,0 -2.5487,-0.39 -3.5835,-1.0677 0.9198,1.0549 2.1654,1.8221 3.5835,2.1225 z"
       fill="#25f4ee"
       data-darkreader-inline-fill=""
       id="path6" />
    <path
       d="M 20.4088,11.0435 C 19.3995,9.88639 18.7927,8.37762 18.7927,6.72821 H 17.528 c 0.3257,1.80285 1.3989,3.34999 2.8808,4.31529 z"
       fill="#fe2c55"
       data-darkreader-inline-fill=""
       id="path8" />
    <path
       d="m 8.70642,20.3646 c -2.19098,0 -3.97314,1.7837 -3.97314,3.9765 0,1.528 0.86872,2.8577 2.13348,3.5226 -0.47268,-0.6521 -0.75374,-1.4512 -0.75374,-2.3207 0,-2.1928 1.78216,-3.9765 3.97318,-3.9765 0.4088,0 0.8048,0.0703 1.1753,0.1854 v -4.8331 c -0.3833,-0.0512 -0.7729,-0.0832 -1.1753,-0.0832 -0.0703,0 -0.13418,0.0064 -0.20445,0.0064 V 20.55 C 9.50488,20.4349 9.11523,20.3646 8.70642,20.3646 Z"
       fill="#fe2c55"
       data-darkreader-inline-fill=""
       id="path10" />
    <path
       d="m 23.9921,13.166 v 3.676 c -2.4529,0 -4.7269,-0.7863 -6.5794,-2.1161 v 9.6216 c 0,4.8012 -3.9028,8.7138 -8.70639,8.7138 -1.85243,0 -3.5771,-0.5882 -4.98878,-1.5791 1.59053,1.7069 3.85816,2.781 6.36857,2.781 4.7971,0 8.7064,-3.9062 8.7064,-8.7138 v -9.6216 c 1.8524,1.3298 4.1264,2.1161 6.5793,2.1161 v -4.7308 c -0.4791,0 -0.939,-0.0512 -1.3797,-0.1471 z"
       fill="#fe2c55"
       data-darkreader-inline-fill=""
       id="path12" />
    <path
       d="m 17.4127,24.3475 v -9.6216 c 1.8525,1.3298 4.1265,2.1161 6.5794,2.1161 V 13.166 C 22.574,12.8656 21.3284,12.0984 20.4086,11.0435 18.9266,10.0782 17.8599,8.53106 17.5213,6.72821 H 14.0592 L 14.0528,25.6964 c -0.0766,2.1225 -1.8269,3.8295 -3.9667,3.8295 -1.32868,0 -2.49763,-0.6585 -3.22582,-1.6558 -1.26477,-0.6713 -2.13349,-1.9946 -2.13349,-3.5226 0,-2.1928 1.78216,-3.9765 3.97314,-3.9765 0.40881,0 0.80485,0.0703 1.17534,0.1854 v -3.708 c -4.70134,0.1023 -8.49563,3.9637 -8.49563,8.701 0,2.2887 0.88789,4.3729 2.33789,5.9328 1.41168,0.9909 3.13636,1.5791 4.98879,1.5791 4.79718,0 8.70638,-3.9126 8.70638,-8.7138 z"
       fill="#000000"
       data-darkreader-inline-fill=""
       id="path14"
       style="fill:#ffffff;fill-opacity:1" />
  </g>
  <defs
     id="defs39">
    <clipPath
       id="clip0">
      <rect
         width="118"
         height="42"
         fill="#ffffff"
         data-darkreader-inline-fill=""
         id="rect36"
         x="0"
         y="0" />
    </clipPath>
  </defs>
</svg>
